<?xml version="1.0" encoding="iso-8859-1"?>
<!-- Generator: Adobe Illustrator 16.0.0, SVG Export Plug-In . SVG Version: 6.00 Build 0)  -->
<!DOCTYPE svg PUBLIC "-//W3C//DTD SVG 1.1//EN" "http://www.w3.org/Graphics/SVG/1.1/DTD/svg11.dtd">
<svg version="1.1" id="Capa_1" xmlns="http://www.w3.org/2000/svg" xmlns:xlink="http://www.w3.org/1999/xlink" x="0px" y="0px"
	 width="426.197px" height="426.197px" viewBox="0 0 426.197 426.197" style="enable-background:new 0 0 426.197 426.197;"
	 xml:space="preserve">
<g>
	<g>
		<path style="fill:#f9f9f9;" d="M424.145,283.785c-0.205-0.205-0.421-0.396-0.645-0.571c-34.849-31.621-75.27-30.922-110.646-25.464
			c5.711-37.038,6.107-79.275-29.511-114.895c-35.621-35.622-77.867-35.222-114.914-29.508c5.483-35.521,6.168-76.13-25.833-111.075
			c-1.29-1.407-3.099-2.229-5.009-2.271c-1.909-0.042-3.753,0.698-5.104,2.049l-21.25,21.25c-2.608,2.608-2.744,6.794-0.311,9.567
			c1.896,2.159,3.641,4.421,5.199,6.738l-76.513,76.515c-2.319-1.563-4.581-3.308-6.739-5.201c-2.773-2.434-6.959-2.297-9.567,0.312
			l-21.25,21.249c-1.351,1.353-2.091,3.194-2.048,5.104c0.041,1.909,0.861,3.718,2.271,5.008
			c34.944,32.002,75.549,31.319,111.069,25.838c-5.714,37.042-6.113,79.282,29.505,114.901
			c35.621,35.621,77.871,35.218,114.919,29.502c-5.481,35.528-6.169,76.141,25.835,111.089c1.29,1.409,3.1,2.229,5.01,2.271
			c1.908,0.042,3.753-0.697,5.104-2.05l21.25-21.25c2.607-2.606,2.744-6.794,0.312-9.564c-1.896-2.159-3.641-4.422-5.201-6.74
			l76.518-76.518c2.316,1.561,4.569,3.3,6.717,5.186c2.772,2.436,6.96,2.3,9.568-0.31l21.25-21.251
			c0.006-0.005,0.011-0.012,0.014-0.016C426.879,290.951,426.879,286.519,424.145,283.785z M122.204,122.207
			c-20.222,3.923-37.089,6.169-52.217,4.549l56.77-56.771C128.375,85.117,126.129,101.983,122.204,122.207z M159.571,159.574
			c18.818-3.652,34.602-5.854,48.963-4.841l-53.801,53.803C153.718,194.172,155.917,178.39,159.571,159.574z M173.963,252.22
			c-3.795-3.795-7.055-7.893-9.705-12.197l75.766-75.766c4.31,2.652,8.409,5.914,12.207,9.712c3.8,3.798,7.062,7.897,9.714,12.208
			l-75.762,75.762C181.87,259.287,177.765,256.022,173.963,252.22z M266.631,266.608c-18.814,3.651-34.596,5.854-48.951,4.846
			l53.786-53.787C272.479,232.023,270.281,247.8,266.631,266.608z M299.443,356.213c-1.619-15.133,0.628-32.009,4.555-52.239
			c20.228-3.925,37.098-6.17,52.229-4.545L299.443,356.213z"/>
	</g>
</g>
<g>
</g>
<g>
</g>
<g>
</g>
<g>
</g>
<g>
</g>
<g>
</g>
<g>
</g>
<g>
</g>
<g>
</g>
<g>
</g>
<g>
</g>
<g>
</g>
<g>
</g>
<g>
</g>
<g>
</g>
</svg>
