<svg xmlns="http://www.w3.org/2000/svg" xmlns:svg="http://www.w3.org/2000/svg" id="svg10" width="4.868" height="5.121" version="1.1" viewBox="0 0 2 2" xml:space="preserve" style="shape-rendering:geometricPrecision;text-rendering:geometricPrecision;image-rendering:optimizeQuality;fill-rule:evenodd;clip-rule:evenodd"><metadata id="metadata14"/><defs id="defs4"><style id="style2" type="text/css"><![CDATA[
    .fil0 {fill:#FEFEFE}
   ]]></style></defs><path style="clip-rule:evenodd;fill:#f9f9f9;fill-opacity:1;fill-rule:evenodd;stroke:none;stroke-width:.333701;image-rendering:optimizeQuality;shape-rendering:geometricPrecision;text-rendering:geometricPrecision" id="path842" d="M 1.8198161,0.85203822 1.0605158,0.23083462 c -0.026642,-0.0238925 -0.053285,-0.0358386 -0.093247,-0.0358386 -0.0266423,0 -0.0666057,0.0119462 -0.0932474,0.0358386 l -0.69269498,0.6212036 -0.0399632,0.035839 V 1.8196826 H 0.82073672 V 1.2343174 H 1.1804052 V 1.8196823 H 1.8597791 V 0.88787692 Z M 0.96726839,0.30251196 c 0,0 0,0 0,0 0,0 0,0 0,0 z M 1.7398898,1.7002201 H 1.3136159 V 1.2343174 c 0,-0.059731 -0.066605,-0.107516 -0.1332106,-0.107516 H 0.82073674 c -0.0666053,0 -0.11988952,0.047785 -0.11988952,0.107516 V 1.7002201 H 0.26125236 V 0.93566172 L 0.96726839,0.30251196 c 0,0 0,0 0,0 L 1.7398898,0.93566172 Z"/></svg>