<svg xmlns="http://www.w3.org/2000/svg" xmlns:svg="http://www.w3.org/2000/svg" id="svg6" version="1.1" viewBox="0 0 512 512"><metadata id="metadata12"/><path style="fill:#f9f9f9" id="path2" d="M 114.91406 97.771484 C 103.83406 97.771484 94.914062 106.69148 94.914062 117.77148 L 94.914062 362.32227 C 94.914062 373.40227 103.83406 382.32227 114.91406 382.32227 L 445.7793 382.32227 C 456.8593 382.32227 465.7793 373.40227 465.7793 362.32227 L 465.7793 117.77148 C 465.7793 106.69148 456.8593 97.771484 445.7793 97.771484 L 114.91406 97.771484 z M 330.125 116.52539 A 16.669767 16.669767 0 0 1 330.2168 116.52539 A 16.669767 16.669767 0 0 1 346.88672 133.19531 A 16.669767 16.669767 0 0 1 330.2168 149.86523 A 16.669767 16.669767 0 0 1 313.54688 133.19531 A 16.669767 16.669767 0 0 1 330.125 116.52539 z M 376.94336 116.52539 A 16.669767 16.669767 0 0 1 377.03516 116.52539 A 16.669767 16.669767 0 0 1 393.70508 133.19531 A 16.669767 16.669767 0 0 1 377.03516 149.86523 A 16.669767 16.669767 0 0 1 360.36523 133.19531 A 16.669767 16.669767 0 0 1 376.94336 116.52539 z M 422.78516 116.52539 A 16.669767 16.669767 0 0 1 422.87695 116.52539 A 16.669767 16.669767 0 0 1 439.54688 133.19531 A 16.669767 16.669767 0 0 1 422.87695 149.86523 A 16.669767 16.669767 0 0 1 406.20703 133.19531 A 16.669767 16.669767 0 0 1 422.78516 116.52539 z M 137.17969 170.51758 L 427.84961 170.51758 C 434.90221 170.51758 440.58008 176.19545 440.58008 183.24805 L 440.58008 339.68359 C 440.58008 346.73619 434.90221 352.41406 427.84961 352.41406 L 137.17969 352.41406 C 130.12709 352.41406 124.44922 346.73619 124.44922 339.68359 L 124.44922 183.24805 C 124.44922 176.19545 130.12709 170.51758 137.17969 170.51758 z M 140.50195 189.08008 L 140.50195 218.97656 L 192.38672 241.69336 L 192.38672 242.09375 L 140.50195 262.90234 L 140.50195 292.69922 L 235.88281 249.92578 L 235.88281 233.66016 L 140.50195 189.08008 z M 238.45312 277.78516 L 238.45312 305.73438 L 325.25586 305.73438 L 325.25586 277.78516 L 238.45312 277.78516 z"/></svg>